<svg fill="none" height="24" viewBox="0 0 24 24" width="24" xmlns="http://www.w3.org/2000/svg"><path d="m6.62 10.79c1.44 2.83 3.76 5.15 6.59 6.59l2.2-2.2c.28-.28.67-.36 1.02-.25 1.12.37 2.32.57 3.57.57.2652 0 .5196.1054.7071.2929s.2929.4419.2929.7071v3.5c0 .2652-.1054.5196-.2929.7071s-.4419.2929-.7071.2929c-4.5087 0-8.8327-1.7911-12.02082-4.9792-3.18811-3.1881-4.97918-7.51212-4.97918-12.0208 0-.26522.10536-.51957.29289-.70711.18754-.18753.44189-.29289.70711-.29289h3.5c.26522 0 .51957.10536.70711.29289.18753.18754.29289.44189.29289.70711 0 1.25.2 2.45.57 3.57.11.35.03.74-.25 1.02z" fill="#000"/></svg>