<svg width="24" height="24" viewBox="0 0 24 24" fill="none" xmlns="http://www.w3.org/2000/svg">
<path d="M12 0C5.37017 0 0 5.37017 0 12C0 18.6298 5.37017 24 12 24C18.6298 24 24 18.6298 24 12C24 5.37017 18.6298 0 12 0ZM12.0166 20.6519C10.1271 20.6519 8.60221 20.3867 8.60221 20.0553C8.60221 19.7238 10.1271 19.4586 12.0166 19.4586C13.9061 19.4586 15.4309 19.7238 15.4309 20.0553C15.4309 20.3867 13.9061 20.6519 12.0166 20.6519ZM17.221 13.4088C17.221 13.6575 17.1547 13.7901 16.9724 13.8398C16.2597 14.0387 15.5967 14.2376 14.9337 14.4033C14.7845 14.4365 14.6519 14.337 14.6354 14.1381C14.5691 12.8122 14.4862 11.7182 14.2873 10.5083C14.1713 9.79558 14.0552 9.49723 13.7072 9.29834C13.3923 9.13259 12.8785 9.1326 12.4972 9.26519C12.0663 9.43094 11.7348 9.69613 11.5525 10.1436C11.3702 10.5912 11.4365 11.0387 11.5028 11.6851C11.6188 12.7459 11.6851 13.8895 11.7182 14.9503C11.7182 15.1326 11.6022 15.3149 11.4365 15.3481C10.7735 15.5138 9.99447 15.7624 9.33149 15.9282C9.16575 15.9613 9.04972 15.8619 9.04972 15.6796C9 10.4254 7.75691 6.24862 6.8453 4.62431C6.74586 4.45856 6.82873 4.27624 6.96133 4.22652C7.54144 4.01105 8.33702 3.69613 8.91713 3.46409C9.09945 3.39779 9.23205 3.51381 9.31492 3.67956C9.87845 4.8232 10.3757 6.62983 10.7072 7.83978C10.7735 8.0884 10.9558 8.08839 11.105 7.8895C11.2873 7.65746 11.5028 7.39226 11.6685 7.19337C12.0331 6.77901 12.3978 6.51381 12.895 6.29834C13.6575 5.96685 14.6685 6.0663 15.3481 6.51381C16.0276 6.96132 16.4751 7.59116 16.7569 8.66851C17.0718 10.0442 17.2541 11.7514 17.221 13.4088Z" fill="#141919"/>
</svg>
